<svg xmlns="http://www.w3.org/2000/svg" xmlns:xlink="http://www.w3.org/1999/xlink" width="500" zoomAndPan="magnify" viewBox="0 0 375 374.999991" height="500" preserveAspectRatio="xMidYMid meet" version="1.0"><defs><clipPath id="085178c9ef"><path d="M 45.0625 30 L 336 30 L 336 346 L 45.0625 346 Z M 45.0625 30 " clip-rule="nonzero"/></clipPath></defs><path fill="#545454" d="M 75.980469 246.863281 L 113.09375 246.863281 C 116.507812 246.863281 119.277344 244.09375 119.277344 240.679688 C 119.277344 237.269531 116.507812 234.5 113.09375 234.5 L 75.980469 234.5 C 72.566406 234.5 69.796875 237.269531 69.796875 240.679688 C 69.796875 244.09375 72.5625 246.863281 75.980469 246.863281 Z M 75.980469 246.863281 " fill-opacity="1" fill-rule="nonzero"/><path fill="#545454" d="M 75.980469 222.136719 L 125.460938 222.136719 C 128.878906 222.136719 131.648438 219.371094 131.648438 215.957031 C 131.648438 212.542969 128.878906 209.777344 125.460938 209.777344 L 75.980469 209.777344 C 72.566406 209.777344 69.796875 212.542969 69.796875 215.957031 C 69.796875 219.371094 72.5625 222.136719 75.980469 222.136719 Z M 75.980469 222.136719 " fill-opacity="1" fill-rule="nonzero"/><path fill="#545454" d="M 75.980469 197.414062 L 131.648438 197.414062 C 135.0625 197.414062 137.832031 194.644531 137.832031 191.234375 C 137.832031 187.820312 135.0625 185.050781 131.648438 185.050781 L 75.980469 185.050781 C 72.566406 185.050781 69.796875 187.820312 69.796875 191.234375 C 69.796875 194.644531 72.5625 197.414062 75.980469 197.414062 Z M 75.980469 197.414062 " fill-opacity="1" fill-rule="nonzero"/><path fill="#545454" d="M 75.980469 172.691406 L 106.90625 172.691406 C 110.320312 172.691406 113.09375 169.921875 113.09375 166.507812 C 113.09375 163.09375 110.320312 160.328125 106.90625 160.328125 L 75.980469 160.328125 C 72.566406 160.328125 69.796875 163.09375 69.796875 166.507812 C 69.796875 169.921875 72.5625 172.691406 75.980469 172.691406 Z M 75.980469 172.691406 " fill-opacity="1" fill-rule="nonzero"/><path fill="#545454" d="M 75.980469 271.742188 L 131.648438 271.742188 C 135.0625 271.742188 137.832031 268.972656 137.832031 265.558594 C 137.832031 262.148438 135.0625 259.378906 131.648438 259.378906 L 75.980469 259.378906 C 72.566406 259.378906 69.796875 262.148438 69.796875 265.558594 C 69.796875 268.972656 72.5625 271.742188 75.980469 271.742188 Z M 75.980469 271.742188 " fill-opacity="1" fill-rule="nonzero"/><path fill="#545454" d="M 75.980469 296.464844 L 144.019531 296.464844 C 147.433594 296.464844 150.203125 293.695312 150.203125 290.285156 C 150.203125 286.871094 147.433594 284.101562 144.019531 284.101562 L 75.980469 284.101562 C 72.566406 284.101562 69.796875 286.871094 69.796875 290.285156 C 69.796875 293.695312 72.5625 296.464844 75.980469 296.464844 Z M 75.980469 296.464844 " fill-opacity="1" fill-rule="nonzero"/><path fill="#545454" d="M 205.871094 308.828125 L 75.980469 308.828125 C 72.566406 308.828125 69.796875 311.59375 69.796875 315.007812 C 69.796875 318.421875 72.566406 321.1875 75.980469 321.1875 L 205.871094 321.1875 C 209.285156 321.1875 212.054688 318.421875 212.054688 315.007812 C 212.054688 311.59375 209.285156 308.828125 205.871094 308.828125 Z M 205.871094 308.828125 " fill-opacity="1" fill-rule="nonzero"/><path fill="#545454" d="M 82.164062 116.984375 L 174.945312 116.984375 C 178.359375 116.984375 181.128906 114.21875 181.128906 110.804688 L 181.128906 67.535156 C 181.128906 64.125 178.359375 61.355469 174.945312 61.355469 L 82.164062 61.355469 C 78.75 61.355469 75.980469 64.125 75.980469 67.535156 L 75.980469 110.804688 C 75.980469 114.21875 78.75 116.984375 82.164062 116.984375 Z M 88.351562 73.71875 L 168.757812 73.71875 L 168.757812 104.621094 L 88.351562 104.621094 Z M 88.351562 73.71875 " fill-opacity="1" fill-rule="nonzero"/><path fill="#545454" d="M 182.492188 192.574219 C 164.210938 210.84375 164.210938 240.566406 182.492188 258.835938 C 200.773438 277.105469 230.519531 277.105469 248.800781 258.835938 C 267.101562 240.550781 267.101562 210.859375 248.800781 192.574219 C 230.5 174.285156 200.792969 174.285156 182.492188 192.574219 Z M 240.054688 250.09375 C 226.597656 263.546875 204.699219 263.546875 191.238281 250.09375 C 177.78125 236.644531 177.78125 214.761719 191.238281 201.3125 C 197.746094 194.8125 206.414062 191.230469 215.644531 191.230469 C 234.746094 191.230469 250.144531 206.613281 250.144531 225.707031 C 250.144531 234.929688 246.5625 243.59375 240.054688 250.09375 Z M 240.054688 250.09375 " fill-opacity="1" fill-rule="nonzero"/><g clip-path="url(#085178c9ef)"><path fill="#545454" d="M 330.347656 314.105469 L 292.539062 276.320312 C 290.121094 273.90625 286.207031 273.90625 283.789062 276.320312 L 279.417969 280.6875 L 270.480469 271.757812 C 284.328125 255.316406 289.59375 234.066406 286.277344 213.964844 C 286.269531 103.753906 286.332031 110.523438 286.164062 109.644531 C 285.921875 108.40625 285.3125 107.28125 284.464844 106.433594 C 205.304688 27.363281 210.085938 31.863281 208.722656 31.148438 C 207.894531 30.71875 206.890625 30.449219 205.871094 30.449219 L 69.796875 30.449219 C 56.152344 30.449219 45.054688 41.542969 45.054688 55.175781 L 45.054688 321.035156 C 45.054688 334.667969 56.152344 345.757812 69.796875 345.757812 L 261.539062 345.757812 C 274.699219 345.757812 285.488281 335.4375 286.234375 322.46875 L 304.109375 340.328125 C 311.34375 347.558594 323.113281 347.558594 330.347656 340.328125 L 330.351562 340.328125 C 337.585938 333.101562 337.585938 321.335938 330.347656 314.105469 Z M 257.550781 267.578125 C 234.445312 290.667969 196.851562 290.667969 173.746094 267.578125 C 150.640625 244.488281 150.640625 206.921875 173.746094 183.832031 C 196.851562 160.742188 234.445312 160.742188 257.550781 183.832031 C 280.652344 206.921875 280.652344 244.488281 257.550781 267.578125 Z M 212.054688 51.554688 L 265.160156 104.621094 L 212.054688 104.621094 Z M 273.910156 321.035156 C 273.910156 327.851562 268.359375 333.398438 261.539062 333.398438 L 69.796875 333.398438 C 62.972656 333.398438 57.425781 327.851562 57.425781 321.035156 L 57.425781 55.175781 C 57.425781 48.359375 62.972656 42.8125 69.796875 42.8125 L 199.683594 42.8125 L 199.683594 110.804688 C 199.683594 114.21875 202.457031 116.984375 205.871094 116.984375 L 273.910156 116.984375 L 273.910156 184.0625 C 248.015625 147.929688 196.042969 144.066406 164.996094 175.089844 C 137.070312 203 137.070312 248.410156 164.996094 276.320312 C 191.3125 302.613281 233.460938 304.28125 261.734375 280.5 L 270.671875 289.429688 L 266.296875 293.800781 C 263.878906 296.214844 263.878906 300.128906 266.296875 302.542969 L 273.910156 310.152344 Z M 321.601562 331.589844 C 319.191406 333.996094 315.265625 333.996094 312.855469 331.589844 L 279.417969 298.171875 C 280.273438 297.316406 277.871094 299.714844 288.164062 289.433594 L 321.601562 322.847656 C 324.011719 325.257812 324.011719 329.179688 321.601562 331.589844 Z M 321.601562 331.589844 " fill-opacity="1" fill-rule="nonzero"/></g></svg>